<?xml version="1.0" standalone="no"?><!DOCTYPE svg PUBLIC "-//W3C//DTD SVG 1.1//EN" "http://www.w3.org/Graphics/SVG/1.1/DTD/svg11.dtd"><svg t="1732455640101" class="icon" viewBox="0 0 1024 1024" version="1.1" xmlns="http://www.w3.org/2000/svg" p-id="11186" xmlns:xlink="http://www.w3.org/1999/xlink" width="128" height="128"><path d="M512 0C229.236364 0 0 229.236364 0 512s229.236364 512 512 512 512-229.236364 512-512S794.763636 0 512 0z m264.331636 666.251636a52.293818 52.293818 0 0 1-52.875636 51.316364H300.544a52.293818 52.293818 0 0 1-52.852364-51.386182l0.232728-253.905454 257.675636 136.727272c3.956364 2.094545 8.704 2.094545 12.683636 0l258.048-136.843636v254.091636z m-264.192-165.585454l-264.192-143.36a52.107636 52.107636 0 0 1 52.596364-50.944h422.912c28.858182 0 52.48 22.807273 52.875636 50.757818l-264.192 143.616v-0.069818z" fill="#007CFF" p-id="11187"></path></svg>